<svg width="17" height="15" viewBox="0 0 17 15" fill="none" xmlns="http://www.w3.org/2000/svg">
<path d="M13.6904 3.50559C13.1812 2.3356 12.3024 1.36482 11.1888 0.742032C10.0751 0.11924 8.78791 -0.121214 7.5245 0.0575172C6.26109 0.236248 5.09113 0.824304 4.19391 1.73157C3.29668 2.63884 2.72169 3.81527 2.55703 5.08059C1.76252 5.27086 1.06555 5.74629 0.598477 6.41658C0.131407 7.08688 -0.0732339 7.90537 0.0234157 8.71661C0.120065 9.52785 0.511275 10.2753 1.12275 10.8171C1.73423 11.3589 2.52339 11.6573 3.34036 11.6556C3.56138 11.6556 3.77334 11.5678 3.92962 11.4115C4.0859 11.2552 4.1737 11.0433 4.1737 10.8223C4.1737 10.6012 4.0859 10.3893 3.92962 10.233C3.77334 10.0767 3.56138 9.98893 3.34036 9.98893C2.89834 9.98893 2.47441 9.81333 2.16185 9.50077C1.84929 9.18821 1.6737 8.76429 1.6737 8.32226C1.6737 7.88023 1.84929 7.45631 2.16185 7.14375C2.47441 6.83119 2.89834 6.65559 3.34036 6.65559C3.56138 6.65559 3.77334 6.5678 3.92962 6.41152C4.0859 6.25523 4.1737 6.04327 4.1737 5.82226C4.17583 4.83666 4.52727 3.88372 5.16559 3.13275C5.80391 2.38177 6.68777 1.88139 7.66015 1.72049C8.63254 1.55959 9.63047 1.7486 10.4767 2.25393C11.3229 2.75927 11.9625 3.54821 12.282 4.48059C12.3297 4.62379 12.4153 4.75137 12.5298 4.8497C12.6442 4.94804 12.7833 5.01344 12.932 5.03893C13.4871 5.14382 13.9903 5.4336 14.3596 5.86104C14.7289 6.28848 14.9425 6.82839 14.9657 7.39279C14.9889 7.9572 14.8203 8.51282 14.4873 8.96912C14.1543 9.42542 13.6766 9.75551 13.132 9.90559C12.9176 9.96085 12.734 10.099 12.6215 10.2897C12.5089 10.4803 12.4768 10.7079 12.532 10.9223C12.5873 11.1366 12.7254 11.3203 12.9161 11.4328C13.1068 11.5453 13.3343 11.5775 13.5487 11.5223C14.4257 11.2905 15.2031 10.7789 15.7629 10.0651C16.3226 9.35138 16.6342 8.47443 16.6502 7.56748C16.6663 6.66053 16.3859 5.77313 15.8517 5.04003C15.3175 4.30692 14.5586 3.76818 13.6904 3.50559ZM8.93203 14.0847C8.85278 14.1606 8.75932 14.2201 8.65703 14.2597C8.45415 14.3431 8.22658 14.3431 8.0237 14.2597C7.9214 14.2201 7.82795 14.1606 7.7487 14.0847L5.2487 11.5847C5.09178 11.4278 5.00362 11.215 5.00362 10.9931C5.00362 10.7712 5.09178 10.5583 5.2487 10.4014C5.40562 10.2445 5.61845 10.1563 5.84036 10.1563C6.06228 10.1563 6.27511 10.2445 6.43203 10.4014L7.50703 11.4847V6.82641C7.50703 6.6054 7.59483 6.39344 7.75111 6.23716C7.90739 6.08088 8.11935 5.99308 8.34036 5.99308C8.56138 5.99308 8.77334 6.08088 8.92962 6.23716C9.0859 6.39344 9.1737 6.6054 9.1737 6.82641V11.4847L10.2487 10.4014C10.3262 10.3233 10.4183 10.2613 10.5199 10.219C10.6214 10.1767 10.7304 10.1549 10.8404 10.1549C10.9504 10.1549 11.0593 10.1767 11.1608 10.219C11.2624 10.2613 11.3546 10.3233 11.432 10.4014C11.5101 10.4789 11.5721 10.5711 11.6144 10.6726C11.6567 10.7742 11.6785 10.8831 11.6785 10.9931C11.6785 11.1031 11.6567 11.212 11.6144 11.3136C11.5721 11.4151 11.5101 11.5073 11.432 11.5847L8.93203 14.0847Z" fill="#ECEFF4"/>
</svg>
