<svg width="125" height="40" viewBox="0 0 125 40" fill="none" xmlns="http://www.w3.org/2000/svg">
<path d="M19.7619 0C9.35374 0 0.816327 8.09524 0 18.4014L10.6122 22.8231C11.4966 22.2109 12.585 21.8367 13.7755 21.8367C13.8776 21.8367 13.9796 21.8367 14.0816 21.8367L18.8095 14.932V14.8299C18.8095 10.6803 22.1769 7.27892 26.2925 7.27892C30.4082 7.27892 33.7755 10.6463 33.7755 14.8299C33.7755 18.9796 30.4082 22.381 26.2925 22.381C26.2245 22.381 26.1905 22.381 26.1225 22.381L19.3878 27.2449C19.3878 27.3469 19.3878 27.415 19.3878 27.517C19.3878 30.6463 16.8708 33.1633 13.7755 33.1633C11.0544 33.1633 8.77551 31.1905 8.26531 28.6054L0.680272 25.4422C3.02721 33.8435 10.6803 40 19.7619 40C30.7143 40 39.5918 31.0544 39.5918 20C39.5578 8.94558 30.6803 0 19.7619 0ZM12.415 30.3401L9.96599 29.3197C10.4082 30.2381 11.1565 30.9864 12.1429 31.3946C14.2857 32.2789 16.7687 31.2585 17.6531 29.1156C18.0952 28.0612 18.0952 26.9048 17.6531 25.8503C17.2109 24.7959 16.4286 23.9796 15.3742 23.5374C14.3537 23.0952 13.2313 23.1292 12.2789 23.5034L14.7959 24.5578C16.3605 25.2381 17.1088 27.0408 16.4626 28.6395C15.8163 30.2721 14.0136 31.0204 12.415 30.3401ZM31.2585 14.8299C31.2585 12.0748 29.0136 9.79592 26.2925 9.79592C23.5374 9.79592 21.3265 12.0408 21.3265 14.8299C21.3265 17.585 23.5714 19.864 26.2925 19.864C29.0476 19.864 31.2585 17.6191 31.2585 14.8299ZM22.551 14.8299C22.551 12.7551 24.2177 11.0544 26.2925 11.0544C28.3673 11.0544 30.034 12.7551 30.034 14.8299C30.034 16.9048 28.3673 18.6054 26.2925 18.6054C24.2177 18.6054 22.551 16.9048 22.551 14.8299Z" fill="#ECEFF4"/>
<path d="M124.15 26.8707H120.782V18.1292L117.449 26.8707H115.408L112.109 18.1292V26.8707H108.537V11.8367H112.755L116.429 22.0408L120.136 11.8367H124.15V26.8707Z" fill="#ECEFF4"/>
<path d="M99.6599 12.0408H97.0748L91.5986 27.449H94.7959L95.7143 24.932H100.714L101.633 27.449H105.136L99.6599 12.0408ZM96.5986 22.415L98.4354 16.9388L100.272 22.415H96.5986Z" fill="#ECEFF4"/>
<path d="M88.6055 26.8707H78.5715V11.8367H88.6055V14.4217H81.7688V17.9932H87.6872V20.5782H81.7688V24.2857H88.6055V26.8707Z" fill="#ECEFF4"/>
<path d="M74.4219 14.4217H70.7484V26.8707H67.5851V14.4217H63.4695V11.8367H74.4219V14.4217Z" fill="#ECEFF4"/>
<path d="M60.6123 22.449C60.6123 25.5442 57.8912 26.9728 55.1361 27.0068C52.415 27.0068 50.5783 26.3605 49.6599 25L51.4966 23.1292C52.415 23.9456 53.3334 24.4218 55.1361 24.4218C56.9388 24.4218 57.8572 23.7755 57.8572 22.551C57.8572 21.3945 56.9388 20.9184 56.0205 20.7143L54.1837 20.4762C51.4626 20.102 50.0681 18.7075 50.0681 16.2245C50.0681 14.8639 50.5103 13.7755 51.4286 12.8911C52.347 12.0748 53.7075 11.6667 55.0681 11.6667C57.347 11.6667 58.7075 12.2449 60.0681 13.4014L58.2313 15.2721C57.313 14.5918 56.3946 14.2177 55.0341 14.2177C53.6735 14.3197 52.7552 14.7959 52.7552 16.1224C52.7552 17.1769 53.6735 17.6871 54.5919 17.7551L56.4286 18.0272C58.7756 18.3333 60.6123 19.898 60.6123 22.449Z" fill="#ECEFF4"/>
</svg>
