<svg width="17" height="17" viewBox="0 0 17 17" fill="none" xmlns="http://www.w3.org/2000/svg">
<path d="M7.68842 1.41551V7.82576C7.68842 7.9016 7.74987 7.96306 7.82571 7.96306H16.6105C16.6863 7.96306 16.7478 7.9016 16.7478 7.82576V0.13729C16.7478 0.0974198 16.7305 0.0595263 16.7003 0.0334403C16.6702 0.00735419 16.6303 -0.00428844 16.5907 0.00142304L7.80594 1.27964C7.73845 1.28947 7.68842 1.34735 7.68842 1.41551Z" fill="#ECEFF4"/>
<path d="M6.7275 15.3743C6.7605 15.3743 6.79263 15.3624 6.81778 15.3404C6.84766 15.3143 6.86479 15.2766 6.86479 15.237V8.92424C6.86479 8.8484 6.80334 8.78695 6.7275 8.78695H0.14233C0.10592 8.78695 0.070992 8.80139 0.0452354 8.82715C0.0194788 8.85291 0.0050354 8.88783 0.0050354 8.92424L0.00536491 14.3345C0.00536491 14.4031 0.0560543 14.4612 0.123988 14.4705L6.70883 15.3731C6.71503 15.3738 6.72129 15.3743 6.7275 15.3743Z" fill="#ECEFF4"/>
<path d="M0.143281 7.96301H6.72752C6.80336 7.96301 6.86481 7.90155 6.86481 7.82571V1.57505C6.86481 1.5354 6.84768 1.49772 6.81786 1.47164C6.78804 1.44555 6.7486 1.43358 6.70906 1.43902L0.118843 2.33396C0.0506894 2.34324 -5.48735e-05 2.4014 4.45334e-08 2.47016L0.00598611 7.82582C0.00609595 7.90161 0.0675492 7.96301 0.143281 7.96301Z" fill="#ECEFF4"/>
<path d="M16.6105 16.7501C16.6434 16.7501 16.6754 16.7383 16.7005 16.7164C16.7305 16.6903 16.7478 16.6525 16.7478 16.6128L16.7499 8.92424C16.7499 8.88783 16.7355 8.85291 16.7097 8.82715C16.684 8.80139 16.6491 8.78695 16.6127 8.78695H7.82571C7.74987 8.78695 7.68842 8.8484 7.68842 8.92424V15.3769C7.68842 15.4453 7.73883 15.5033 7.80654 15.5129L16.5913 16.7487C16.5977 16.7496 16.6041 16.7501 16.6105 16.7501Z" fill="#ECEFF4"/>
</svg>
